HIERARCHY
ROOT Hips
{
	OFFSET 0.000000 0.000000 0.000000
	CHANNELS 6 Xposition Yposition Zposition Xrotation Yrotation Zrotation
	JOINT LeftUpLeg_virtual
	{
		OFFSET 0.000000 0.000000 0.000000
		CHANNELS 3 Xrotation Yrotation Zrotation
		JOINT LeftUpLeg
		{
			OFFSET 15.427100 -6.655098 0.678600
			CHANNELS 3 Xrotation Yrotation Zrotation
			JOINT LeftLeg
			{
				OFFSET 4.081073 -39.591068 13.024000
				CHANNELS 3 Xrotation Yrotation Zrotation
				JOINT LeftFoot
				{
					OFFSET -4.081074 -37.707932 -15.979700
					CHANNELS 3 Xrotation Yrotation Zrotation
					JOINT LeftToeBase
					{
						OFFSET 5.346399 -15.068900 20.645000
						CHANNELS 3 Xrotation Yrotation Zrotation
						JOINT LeftToe_End
						{
							OFFSET 2.754700 0.931300 11.300900
							CHANNELS 3 Xrotation Yrotation Zrotation
							End Site
							{
								OFFSET 0 0 0
							}
						}
					}
				}
			}
		}
	}
	JOINT RightUpLeg_virtual
	{
		OFFSET 0.000000 0.000000 0.000000
		CHANNELS 3 Xrotation Yrotation Zrotation
		JOINT RightUpLeg
		{
			OFFSET -15.569500 -6.655098 0.678600
			CHANNELS 3 Xrotation Yrotation Zrotation
			JOINT RightLeg
			{
				OFFSET -4.081825 -39.591045 13.023800
				CHANNELS 3 Xrotation Yrotation Zrotation
				JOINT RightFoot
				{
					OFFSET 4.081824 -37.707954 -15.979600
					CHANNELS 3 Xrotation Yrotation Zrotation
					JOINT RightToeBase
					{
						OFFSET -5.346400 -15.068900 20.645000
						CHANNELS 3 Xrotation Yrotation Zrotation
						JOINT RightToe_End
						{
							OFFSET -2.754700 0.931300 11.300900
							CHANNELS 3 Xrotation Yrotation Zrotation
							End Site
							{
								OFFSET 0 0 0
							}
						}
					}
				}
			}
		}
	}
	JOINT Spine_virtual
	{
		OFFSET 0.000000 0.000000 0.000000
		CHANNELS 3 Xrotation Yrotation Zrotation
		JOINT Spine
		{
			OFFSET -0.279200 12.230698 -2.892100
			CHANNELS 3 Xrotation Yrotation Zrotation
			JOINT Spine1
			{
				OFFSET -0.232667 10.192268 -1.242267
				CHANNELS 3 Xrotation Yrotation Zrotation
				JOINT Spine1_split
				{
					OFFSET -0.232667 10.192268 -1.242267
					CHANNELS 3 Xrotation Yrotation Zrotation
					JOINT Spine2
					{
						OFFSET -0.232667 10.192268 -1.242267
						CHANNELS 3 Xrotation Yrotation Zrotation
						JOINT Neck_virtual
						{
							OFFSET 0.000000 0.000000 0.000000
							CHANNELS 3 Xrotation Yrotation Zrotation
							JOINT Neck
							{
								OFFSET -0.418800 17.814194 8.416900
								CHANNELS 3 Xrotation Yrotation Zrotation
								JOINT Head
								{
									OFFSET 0.000000 7.031097 3.806800
									CHANNELS 3 Xrotation Yrotation Zrotation
									JOINT HeadTop_End
									{
										OFFSET 0.000000 24.646606 12.978600
										CHANNELS 3 Xrotation Yrotation Zrotation
										End Site
										{
											OFFSET 0 0 0
										}
									}
								}
							}
						}
						JOINT LeftShoulder_virtual
						{
							OFFSET 0.000000 0.000000 0.000000
							CHANNELS 3 Xrotation Yrotation Zrotation
							JOINT LeftShoulder
							{
								OFFSET 8.476499 7.247704 -3.868750
								CHANNELS 3 Xrotation Yrotation Zrotation
								JOINT LeftShoulder_split
								{
									OFFSET 8.476499 7.247704 -3.868750
									CHANNELS 3 Xrotation Yrotation Zrotation
									JOINT LeftArm
									{
										OFFSET 9.308998 -2.777710 0.208600
										CHANNELS 3 Xrotation Yrotation Zrotation
										JOINT LeftForeArm
										{
											OFFSET 29.972298 0.000000 0.000000
											CHANNELS 3 Xrotation Yrotation Zrotation
											JOINT LeftHand
											{
												OFFSET 26.026505 0.000000 0.000000
												CHANNELS 3 Xrotation Yrotation Zrotation
												End Site
												{
													OFFSET 0 0 0
												}
											}
										}
									}
								}
							}
						}
						JOINT RightShoulder_virtual
						{
							OFFSET 0.000000 0.000000 0.000000
							CHANNELS 3 Xrotation Yrotation Zrotation
							JOINT RightShoulder
							{
								OFFSET -7.570500 7.247704 -3.868750
								CHANNELS 3 Xrotation Yrotation Zrotation
								JOINT RightShoulder_split
								{
									OFFSET -7.570500 7.247704 -3.868750
									CHANNELS 3 Xrotation Yrotation Zrotation
									JOINT RightArm
									{
										OFFSET -9.308998 -2.777710 0.208500
										CHANNELS 3 Xrotation Yrotation Zrotation
										JOINT RightForeArm
										{
											OFFSET -29.972300 0.000000 0.000000
											CHANNELS 3 Xrotation Yrotation Zrotation
											JOINT RightHand
											{
												OFFSET -26.026505 0.000000 0.000000
												CHANNELS 3 Xrotation Yrotation Zrotation
												End Site
												{
													OFFSET 0 0 0
												}
											}
										}
									}
								}
							}
						}
					}
				}
			}
		}
	}
}
MOTION
Frames: 4
Frame Time: 0.03333333
-0.867148 80.927765 -0.476345 0.000000 0.000000 0.000000 14.601145 -57.526107 13.432427 -43.228892 10.016092 27.360293 40.982481 -9.527042 -9.473419 -1.969774 -2.506125 -1.117446 2.259328 -0.166328 0.084392 0.000000 0.000000 0.000000 15.575785 -58.072611 14.366642 -27.360073 -7.644135 -21.152488 44.875162 7.584555 1.616065 -29.952275 -7.167084 10.840754 8.926800 0.556010 0.931856 0.000000 0.000000 0.000000 15.826020 -60.110972 13.818929 5.923660 1.421550 -3.254878 -4.545356 5.269061 -3.859737 0.810609 -2.230136 0.478050 0.000000 0.000000 0.000000 -2.554752 4.751022 -3.274669 -15.508785 7.753971 8.376762 3.382855 34.370963 2.313562 0.000000 0.000000 0.000000 -3.223914 5.133263 -3.766060 -29.481805 6.444815 6.159988 -7.272999 6.051489 -6.858254 33.013193 -10.480410 -42.219694 -26.077848 -86.050917 -26.277432 0.000000 0.000000 0.000000 -3.777733 4.382245 -3.696245 1.865683 16.304358 11.250542 -5.724458 0.666942 -1.110443 12.965511 17.462338 59.126926 5.847225 67.108152 -8.226576 0.000000 0.000000 0.000000 
-0.799794 80.964272 -0.240074 0.000000 0.000000 0.000000 14.575627 -57.399674 13.337116 -43.393220 10.604497 27.589747 40.563397 -9.281823 -9.775834 -2.193070 -2.604860 -0.997487 2.286551 -0.185188 0.138125 0.000000 0.000000 0.000000 15.740989 -58.267388 14.375030 -27.045616 -7.669450 -21.053460 44.796277 7.541150 1.621453 -30.197267 -7.208437 10.459332 9.089419 0.531132 0.999667 0.000000 0.000000 0.000000 16.166511 -60.192408 14.052943 5.937575 1.468728 -3.356598 -4.522587 5.289018 -3.916402 1.054665 -2.042050 0.434615 0.000000 0.000000 0.000000 -2.398355 4.818761 -3.377961 -14.964256 8.420050 8.127993 3.140927 34.245701 2.567590 0.000000 0.000000 0.000000 -2.924656 5.153835 -3.766267 -29.462895 5.928832 6.152442 -6.923435 5.105611 -6.399161 33.265326 -11.652345 -42.498001 -23.432649 -85.296345 -23.338254 0.000000 0.000000 0.000000 -3.638973 4.383785 -3.779165 1.909939 16.204059 11.587039 -6.399413 1.124298 -0.661164 13.783868 17.133863 58.965064 5.125518 66.975769 -7.509883 0.000000 0.000000 0.000000 
-0.735617 81.057289 -0.103737 0.000000 0.000000 0.000000 14.513413 -57.539460 13.148119 -43.259946 11.341609 27.907309 39.842249 -9.011937 -10.044695 -2.501018 -2.629466 -0.902631 2.475917 -0.215297 0.077231 0.000000 0.000000 0.000000 15.723435 -58.416989 14.162838 -26.564976 -7.814525 -20.806010 44.650275 7.532877 1.598518 -30.646676 -7.294694 10.037535 8.818665 0.486986 1.077911 0.000000 0.000000 0.000000 16.098539 -60.064533 13.986590 6.076571 1.552440 -3.462284 -4.492222 5.458504 -4.057491 1.122499 -1.888281 0.509263 0.000000 0.000000 0.000000 -2.310017 5.011449 -3.613318 -14.479769 9.172057 7.850520 2.650069 34.118987 3.001979 0.000000 0.000000 0.000000 -2.712737 5.364873 -3.865420 -29.427774 4.894296 5.850981 -6.262203 4.087011 -6.013210 33.610555 -13.106998 -42.529153 -16.591035 -83.199716 -16.195307 0.000000 0.000000 0.000000 -3.349386 4.520432 -3.988010 1.912972 15.817214 11.913619 -6.528611 1.305847 -0.622383 14.886092 17.836387 58.129657 3.987111 67.160485 -6.629327 0.000000 0.000000 0.000000 
-0.685502 81.155296 -0.120296 0.000000 0.000000 0.000000 14.364463 -57.756011 12.852706 -42.942496 12.044351 28.234808 39.176637 -8.792787 -10.248183 -2.839611 -2.591619 -0.827247 2.828341 -0.252680 -0.105362 0.000000 0.000000 0.000000 15.548323 -58.472717 13.820506 -26.084448 -7.986338 -20.563055 44.305251 7.579814 1.572596 -31.192514 -7.389695 9.711469 8.240050 0.425575 1.149044 0.000000 0.000000 0.000000 15.730658 -59.682876 13.693568 6.313236 1.584925 -3.510444 -4.440513 5.726136 -4.218278 0.881105 -1.740044 0.592762 0.000000 0.000000 0.000000 -2.300237 5.253872 -3.863328 -14.196883 10.028817 7.569756 2.153454 34.122081 3.306937 0.000000 0.000000 0.000000 -2.557041 5.663315 -4.011734 -29.372009 3.577469 5.312295 -5.782848 3.291720 -5.977078 33.816898 -14.512125 -42.559667 -11.389080 -79.988120 -10.662425 0.000000 0.000000 0.000000 -2.941809 4.748098 -4.244944 1.891399 15.250026 12.178100 -6.389289 1.229188 -0.787389 16.276438 19.307020 56.505858 2.583728 67.564149 -5.735199 0.000000 0.000000 0.000000 
